<svg preserveAspectRatio="none" overflow="visible" style="display: block;" width="35.8631" height="5.84152" viewBox="0 0 35.8631 5.84152" fill="none" xmlns="http://www.w3.org/2000/svg">
<g id="Frame 1000005034">
<path id="Cellular-Connection" d="M0.517809 3.65095H1.03562C1.3216 3.65095 1.55343 3.89614 1.55343 4.19859V5.29388C1.55343 5.59633 1.3216 5.84152 1.03562 5.84152H0.517809C0.231831 5.84152 0 5.59633 0 5.29388V4.19859C0 3.89614 0.231831 3.65095 0.517809 3.65095ZM2.93425 2.55566H3.45206C3.73803 2.55566 3.96986 2.80085 3.96986 3.10331V5.29388C3.96986 5.59633 3.73803 5.84152 3.45206 5.84152H2.93425C2.64827 5.84152 2.41644 5.59633 2.41644 5.29388V3.10331C2.41644 2.80085 2.64827 2.55566 2.93425 2.55566ZM5.3507 1.27783H5.86851C6.15449 1.27783 6.38632 1.52302 6.38632 1.82547V5.29388C6.38632 5.59633 6.15449 5.84152 5.86851 5.84152H5.3507C5.06472 5.84152 4.83289 5.59633 4.83289 5.29388V1.82547C4.83289 1.52302 5.06472 1.27783 5.3507 1.27783ZM7.76714 0H8.28495C8.57092 0 8.80275 0.245188 8.80275 0.547642V5.29388C8.80275 5.59633 8.57092 5.84152 8.28495 5.84152H7.76714C7.48116 5.84152 7.24933 5.59633 7.24933 5.29388V0.547642C7.24933 0.245188 7.48116 0 7.76714 0Z" fill="#0F0F0F"/>
<path id="Wifi" d="M16.0522 1.29443C17.2229 1.29447 18.3489 1.72645 19.1974 2.50107C19.2613 2.56088 19.3634 2.56012 19.4264 2.49938L20.0371 1.90747C20.069 1.87667 20.0867 1.83494 20.0865 1.79152C20.0862 1.7481 20.0679 1.70657 20.0357 1.67612C17.8087 -0.373344 14.2953 -0.373344 12.0683 1.67612C12.036 1.70655 12.0177 1.74806 12.0174 1.79148C12.0172 1.8349 12.0349 1.87664 12.0667 1.90747L12.6777 2.49938C12.7405 2.56021 12.8428 2.56097 12.9066 2.50107C13.7552 1.7264 14.8813 1.29442 16.0522 1.29443ZM16.0522 3.22016C16.6954 3.22012 17.3157 3.44971 17.7925 3.86432C17.857 3.92317 17.9586 3.92189 18.0215 3.86145L18.6315 3.26954C18.6637 3.23849 18.6815 3.19637 18.681 3.15261C18.6806 3.10884 18.6619 3.06708 18.6291 3.03667C17.1771 1.73968 14.9285 1.73968 13.4765 3.03667C13.4437 3.06708 13.425 3.10886 13.4246 3.15264C13.4242 3.19642 13.442 3.23854 13.4742 3.26954L14.0841 3.86145C14.147 3.92189 14.2486 3.92317 14.3131 3.86432C14.7896 3.44999 15.4094 3.22041 16.0522 3.22016ZM17.2246 4.63279C17.2572 4.60204 17.2752 4.55973 17.2742 4.51584C17.2733 4.47195 17.2536 4.43038 17.2196 4.40093C16.5457 3.85356 15.5587 3.85356 14.8847 4.40093C14.8508 4.43035 14.831 4.47191 14.83 4.5158C14.8291 4.55969 14.847 4.60202 14.8796 4.63279L15.9351 5.65544C15.966 5.6855 16.0082 5.70241 16.0522 5.70241C16.0962 5.70241 16.1384 5.6855 16.1693 5.65544L17.2246 4.63279Z" fill="#0F0F0F"/>
<g id="Battery">
<path id="Border" opacity="0.35" fill-rule="evenodd" clip-rule="evenodd" d="M24.8397 0.388544C24.3081 0.388544 24.0979 0.426279 23.881 0.534149C23.6978 0.625217 23.5556 0.757391 23.4577 0.927674C23.3416 1.12937 23.3011 1.32478 23.3011 1.81895V4.02266C23.3011 4.51683 23.3416 4.71224 23.4577 4.91394C23.5556 5.08423 23.6978 5.2164 23.881 5.30747C24.0979 5.41534 24.3081 5.45307 24.8397 5.45307H32.8334C33.365 5.45307 33.5752 5.41534 33.7921 5.30747C33.9753 5.2164 34.1175 5.08423 34.2154 4.91394C34.3314 4.71224 34.372 4.51683 34.372 4.02266V1.81895C34.372 1.32478 34.3314 1.12937 34.2154 0.927674C34.1175 0.757391 33.9753 0.625217 33.7921 0.534149C33.5752 0.426279 33.365 0.388544 32.8334 0.388544H24.8397Z" fill="#0F0F0F" stroke="#0F0F0F" stroke-width="0.459243"/>
<path id="Cap" opacity="0.4" d="M35.1629 1.94069V3.90115C35.5871 3.73511 35.863 3.34886 35.863 2.92092C35.863 2.49298 35.5871 2.10673 35.1629 1.94069Z" fill="#0F0F0F"/>
<path id="Capacity" d="M24.9933 1.1237H32.6805C32.9938 1.1237 33.1075 1.15403 33.222 1.21099C33.3366 1.26794 33.4265 1.35152 33.4877 1.45801C33.549 1.56451 33.5816 1.67014 33.5816 1.96144V3.88015C33.5816 4.17145 33.549 4.27708 33.4877 4.38358C33.4265 4.49007 33.3366 4.57365 33.222 4.6306C33.1075 4.68755 32.9938 4.71789 32.6805 4.71789H24.9933C24.68 4.71789 24.5664 4.68755 24.4518 4.6306C24.3373 4.57365 24.2474 4.49007 24.1861 4.38358C24.1248 4.27708 24.0922 4.17145 24.0922 3.88015V1.96144C24.0922 1.67014 24.1248 1.56451 24.1861 1.45801C24.2474 1.35152 24.3373 1.26794 24.4518 1.21099C24.5664 1.15403 24.68 1.1237 24.9933 1.1237Z" fill="#0F0F0F"/>
</g>
</g>
</svg>
