<svg preserveAspectRatio="none" overflow="visible" style="display: block;" width="7.48589" height="7.29024" viewBox="0 0 7.48589 7.29024" fill="none" xmlns="http://www.w3.org/2000/svg">
<path id="Vector" d="M3.75045 0C4.865 0 5.76363 0.341408 6.44637 1.02427C7.13952 1.69704 7.48589 2.57067 7.48589 3.64512C7.48589 4.71957 7.13952 5.59825 6.44637 6.28106C5.76363 6.95383 4.865 7.29024 3.75045 7.29024C2.6259 7.29024 1.71684 6.95383 1.0241 6.28106C0.34137 5.59825 0 4.71957 0 3.64512C0 2.57067 0.34137 1.69704 1.0241 1.02427C1.71684 0.341408 2.6259 0 3.75045 0ZM2.54546 5.06102C2.84681 5.42252 3.24819 5.60325 3.75045 5.60325C4.25229 5.60325 4.64909 5.42252 4.94044 5.06102C5.24138 4.69952 5.39225 4.22753 5.39225 3.64512C5.39225 3.06271 5.24138 2.59076 4.94044 2.22926C4.64909 1.86776 4.25229 1.68699 3.75045 1.68699C3.24819 1.68699 2.84681 1.86776 2.54546 2.22926C2.2441 2.59076 2.09363 3.06271 2.09363 3.64512C2.09363 4.22753 2.2441 4.69952 2.54546 5.06102Z" fill="#0D1217"/>
</svg>
